<svg version="1.2" baseProfile="tiny-ps" xmlns="http://www.w3.org/2000/svg" viewBox="0 0 1720 172" width="1720" height="172">
	<title>assets-images-global-logos-bac-logo-v2-CSX3648cbbb-svg</title>
	<style>
		tspan { white-space:pre }
		.shp0 { fill: #e31837 } 
		.shp1 { fill: #012169 } 
	</style>
	<path id="Layer" fill-rule="evenodd" class="shp0" d="M1587.66 164.7C1587.66 160.89 1590.76 157.79 1594.82 157.79C1598.88 157.79 1601.99 160.89 1601.99 164.7C1601.99 168.52 1598.88 171.85 1594.82 171.85C1590.76 171.85 1587.66 168.76 1587.66 164.7ZM1589.09 164.7C1589.09 167.8 1591.72 170.42 1595.06 170.42C1598.17 170.42 1600.79 168.04 1600.79 164.7C1600.79 161.61 1598.17 159.22 1595.06 159.22C1591.48 159.22 1589.09 161.84 1589.09 164.7Z" />
	<path id="Layer" fill-rule="evenodd" class="shp0" d="M1596.97 168.76L1594.58 165.18L1593.15 165.18L1593.15 168.76L1592.19 168.76L1592.19 160.89L1595.78 160.89C1596.49 160.89 1597.21 160.89 1597.69 161.37C1598.41 161.61 1598.64 162.32 1598.64 163.04C1598.64 164.47 1597.45 165.18 1596.02 165.18L1598.41 168.76L1596.97 168.76ZM1597.21 163.04C1597.21 162.08 1596.26 161.84 1595.3 161.84L1593.15 161.84L1593.15 164.23L1594.58 164.23C1595.78 164.23 1597.21 164.47 1597.21 163.04Z" />
	<path id="Layer" class="shp0" d="M1560.66 171.85C1610.83 128.95 1681.3 87.24 1720 72.22C1714.03 68.41 1704.71 62.93 1694.2 56.97C1644.27 73.41 1585.98 109.88 1533.91 151.12C1542.74 157.79 1552.06 164.7 1560.66 171.85L1560.66 171.85Z" />
	<path id="Layer" class="shp1" d="M1537.73 55.3C1530.32 51.72 1522.2 48.39 1515.99 45.53C1497.12 54.82 1472.51 68.88 1441.46 91.05C1448.14 94.63 1455.31 98.92 1462.96 103.21C1486.84 85.57 1510.97 68.88 1537.73 55.3Z" />
	<path id="Layer" class="shp0" d="M1582.4 34.8C1573.32 29.79 1541.79 18.12 1520.05 13.11C1513.6 15.49 1504.52 19.07 1498.31 21.69C1506.19 23.84 1535.58 31.7 1560.66 44.33C1567.11 41.24 1576.19 37.42 1582.4 34.8Z" />
	<path id="Layer" class="shp1" d="M1475.62 31.7C1447.67 44.57 1418.28 62.21 1402.28 72.46C1408.01 75.08 1413.74 77.23 1421.63 81.04C1456.98 57.21 1484.69 42.67 1495.68 37.9C1487.8 35.04 1480.39 33.13 1475.62 31.7L1475.62 31.7Z" />
	<path id="Layer" class="shp0" d="M1603.42 27.41C1609.87 25.27 1617.28 23.36 1623.73 21.45C1605.09 13.59 1581.68 5.24 1560.66 0C1557.32 0.95 1547.28 3.58 1540.36 5.72C1547.52 7.87 1571.17 13.35 1603.42 27.41ZM1485.65 117.03C1493.29 121.56 1501.42 127.76 1509.3 133C1561.62 92.48 1613.22 61.26 1669.83 43.62C1661.95 39.57 1655.02 35.99 1646.18 31.7C1612.26 40.28 1554.21 63.4 1485.65 117.03Z" />
	<path id="Layer" fill-rule="evenodd" class="shp1" d="M0.24 159.46L0.24 72.46L35.83 72.46C55.18 72.46 64.26 82.47 64.26 94.87C64.26 104.64 59.24 111.31 48.26 113.93C60.68 116.32 66.65 123.95 66.65 135.39C66.65 149.45 57.57 159.46 38.22 159.46L0.24 159.46ZM33.21 122.52L33.21 122.28L20.78 122.28L20.78 143.97L33.21 143.97C40.61 143.97 45.39 140.87 45.39 133.24C45.39 126.09 40.37 122.52 33.21 122.52ZM30.82 87.72L20.78 87.72L20.78 108.21L30.82 108.21C38.22 108.21 43 105.12 43 97.96C43 90.81 37.98 87.72 30.82 87.72ZM143.81 72.22L176.78 159.46L154.8 159.46L148.83 141.35L117.29 141.35L111.32 159.46L89.58 159.46L122.31 72.22L143.81 72.22ZM122.31 125.38L143.33 125.38L133.06 93.2L122.31 125.38ZM285.71 159.46L263.49 159.46L226.23 101.3L226.23 159.46L206.4 159.46L206.4 72.22L228.62 72.22L265.88 130.62L265.88 72.22L285.71 72.22L285.71 159.46ZM377.21 159.46L348.54 115.13L348.54 159.46L327.28 159.46L327.28 72.22L348.54 72.22L348.54 114.17L375.77 72.22L399.42 72.22L370.76 114.17L402.05 159.46L377.21 159.46ZM454.84 115.84C455.08 90.34 473 70.32 501.43 70.32C529.86 70.32 547.77 90.34 548.01 115.84C547.77 141.35 529.86 161.37 501.43 161.37C473 161.37 455.08 141.35 454.84 115.84ZM477.3 115.84C477.3 133.24 487.81 143.97 501.43 143.97C515.04 143.97 525.56 133.24 525.56 115.84C525.56 98.44 515.04 87.72 501.43 87.72C487.81 87.72 477.3 98.44 477.3 115.84ZM577.16 159.46L577.16 72.22L635.68 72.22L631.86 88.91L598.42 88.91L598.42 108.45L626.13 108.45L626.13 125.14L598.42 125.14L598.42 159.46L577.16 159.46ZM767.79 159.46L745.81 159.46L739.84 141.35L708.31 141.35L702.33 159.46L680.59 159.46L713.32 72.22L734.82 72.22L767.79 159.46ZM713.32 125.38L734.34 125.38L724.07 93.2L713.32 125.38ZM893.92 72.22L894.16 159.46L874.33 159.46L874.33 101.06L846.14 159.46L817.96 101.06L817.96 159.46L798.84 159.46L798.84 72.22L823.69 72.22L846.38 119.42L869.08 72.22L893.92 72.22ZM935.25 159.46L935.25 72.22L995.45 72.22L991.63 88.91L956.51 88.91L956.51 107.02L986.85 107.02L986.85 123.23L956.51 123.23L956.51 142.78L994.97 142.78L994.97 159.46L935.25 159.46ZM1075.96 159.46L1056.84 125.38L1051.11 125.38L1051.11 159.7L1030.33 159.7L1030.33 72.46L1064.01 72.46C1085.51 72.46 1095.07 82.95 1095.07 98.68C1095.07 110.84 1089.33 119.18 1077.39 122.52L1099.13 159.46L1075.96 159.46ZM1059.95 88.43L1050.87 88.43L1050.87 110.84L1059.95 110.84C1068.79 110.84 1073.33 107.02 1073.33 99.63C1073.33 92.24 1068.79 88.43 1059.95 88.43ZM1130.9 72.46L1152.16 72.46L1152.16 159.46L1130.9 159.46L1130.9 72.46ZM1256.79 136.1C1256.71 136.16 1256.64 136.21 1256.56 136.27L1256.56 136.1L1256.79 136.1ZM1256.56 136.27L1256.56 155.41C1248.91 159.46 1240.55 161.13 1230.76 161.13C1201.37 161.13 1183.69 141.35 1183.46 115.6C1183.69 90.1 1201.85 70.08 1230.76 70.08C1240.07 70.08 1248.43 71.75 1255.6 75.8L1255.6 95.58C1247.72 89.86 1240.55 87.95 1233.38 87.95C1217.62 87.95 1206.39 99.16 1206.39 115.84C1206.39 132.53 1217.86 143.73 1234.1 143.73C1241.43 143.73 1248.53 141.86 1256.56 136.27ZM1367.64 159.46L1345.66 159.46L1339.69 141.35L1308.16 141.35L1302.18 159.46L1280.44 159.46L1313.17 72.22L1334.67 72.22L1367.64 159.46ZM1323.92 93.2L1313.17 125.38L1334.19 125.38L1323.92 93.2Z" />
</svg>
