<svg version="1.2" xmlns="http://www.w3.org/2000/svg" viewBox="0 0 1626 319" width="1626" height="319">
	<title>robinhood-svg</title>
	<style>
		.s0 { fill: #000000 } 
	</style>
	<path id="Layer" fill-rule="evenodd" class="s0" d="m459.2 166.1c0 49.3-26.1 81.2-66.6 81.2-15.7 0-33.6-7.8-43.5-19.1h-0.5v14.7h-25.8v-211.5h28.1v72.7h0.6c10.1-11.6 26.3-19.1 41.7-19.1 38.8 0 66 33.3 66 81.1zm-28.1 0c0-35.3-15.3-55.3-42.9-55.3-21.1 0-37.3 15.6-37.3 36.2v41.2c0 19.1 16.2 33.6 37.3 33.6 27.6 0 42.9-20 42.9-55.7z"/>
	<path id="Layer" fill-rule="evenodd" class="s0" d="m231.1 247.3c-38.7 0-69.9-36.3-69.9-81.2 0-44.8 31.2-81.1 69.9-81.1 38.7 0 70 36.3 70 81.1 0 44.9-31.3 81.2-70 81.2zm42.2-81c0-30.7-18.9-55.5-42.2-55.5-23.3 0-42.1 24.8-42.1 55.5 0 30.7 18.8 55.5 42.1 55.5 23.3 0 42.2-24.8 42.2-55.5z"/>
	<path id="Layer" fill-rule="evenodd" class="s0" d="m111 151.2c21.5 8 31.3 27.2 31.3 59.6v32.1h-28v-32.1c0-35.4-11.6-48.1-43.5-48.1h-41.4v80.2h-29v-202.8h79.4c41.7 0 68.3 22.9 68.3 58.8 0 26.5-15.1 44.6-37.1 52.3zm7.9-49.4c0-23.5-14.2-35.4-41.7-35.4h-47.8v70.5h48.1c26.9 0 41.4-12.5 41.4-35.1z"/>
	<path id="Layer" class="s0" d="m667.7 142.4v100.5h-28.3v-92.4c0-26.7-10.5-39.4-32.5-39.4-22.3 0-36.5 13.6-36.5 35.3v96.5h-28.1v-153.6h27.5v14.8h0.6c8.4-11.3 25.8-19.1 42-19.1 33.9 0 55.3 22 55.3 57.4z"/>
	<path id="Layer" fill-rule="evenodd" class="s0" d="m1070.2 247.3c-38.7 0-70-36.3-70-81.2 0-44.8 31.3-81.1 70-81.1 38.7 0 69.9 36.3 69.9 81.1 0 44.9-31.2 81.2-69.9 81.2zm42.1-81c0-30.7-18.8-55.5-42.1-55.5-23.3 0-42.2 24.8-42.2 55.5 0 30.7 18.9 55.5 42.2 55.5 23.3 0 42.1-24.8 42.1-55.5z"/>
	<path id="Layer" fill-rule="evenodd" class="s0" d="m1293.9 31.4v211.5h-25.8v-14.7h-0.5c-9.9 11.3-27.8 19.1-43.5 19.1-40.5 0-66.6-31.9-66.6-81.2 0-47.2 27.5-81.1 66.3-81.1 15.4 0 31.3 7.2 41.4 19.1h0.6v-72.7zm-28.1 115.6c0-20.6-16.2-36.2-37.3-36.2-27.6 0-42.9 20-42.9 55.3 0 35.7 15.3 55.7 42.9 55.7 21.1 0 37.3-14.5 37.3-33.6z"/>
	<path id="Layer" fill-rule="evenodd" class="s0" d="m912.9 247.3c-38.7 0-69.9-36.3-69.9-81.2 0-44.8 31.2-81.1 69.9-81.1 38.7 0 70 36.3 70 81.1 0 44.9-31.3 81.2-70 81.2zm42.1-81c0-30.7-18.8-55.5-42.1-55.5-23.3 0-42.1 24.8-42.1 55.5 0 30.7 18.8 55.5 42.1 55.5 23.3 0 42.1-24.8 42.1-55.5z"/>
	<path id="Layer" class="s0" d="m481.2 31.4h30.4v29.8h-30.4z"/>
	<path id="Layer" class="s0" d="m822.7 142.1v100.8h-28.1v-93.9c0-24-12.2-37.9-33.3-37.9-21.4 0-36.5 14.5-36.5 35.3v96.5h-28.1v-211.5h28.1v73.3h0.6c8.1-11.6 25.5-19.7 42.5-19.7 33.6 0 54.8 22 54.8 57.1z"/>
	<path id="Layer" class="s0" d="m482.4 89.3h28.1v153.6h-28.1z"/>
	<path id="Layer" class="s0" d="m1488.6 250.5c0.2 0.3 0.3 0.7 0.1 1.1l-6.4 12.7c-0.6 1.4-2 2.1-2 2.1-8.5 4.1-22.6 10.7-35 16.7l-0.3 0.1c-6.5 3.1-12.8 6.7-17.7 9l-2.2 1.1q-0.2 0-0.4 0-0.4 0-0.6-0.2c-0.3-0.3-0.4-0.7-0.3-1l1-2.3c1.2-2.8 4-9.7 6-14.3l0.1-0.2q0.6-1.6 1.2-2.8c0 0 0.6-1.3 1.6-1.7 18-8.3 38.2-15.3 51.8-19.9l2.1-0.6c0.3-0.2 0.7 0 1 0.2z"/>
	<path id="Layer" class="s0" d="m1428.9 246.5c-10.9 22.9-20.8 46.3-29.5 70l-0.6 1.6c-0.2 0.5-0.6 0.8-1.2 0.8h-8.5c-0.4 0-0.8-0.2-1-0.5-0.2-0.3-0.3-0.7-0.2-1.1 0 0 13.4-56.7 28.3-99.7-6-23.5-10-54.1-10.1-55.4-0.2-1.3 0-3 0.9-4.2 16.4-24.5 34.3-48.4 53.3-71.1 0.3-0.3 1.9-2 4.5-2.7 25.3-6.1 51-10.9 76.3-14.4l1.7-0.2c0.5-0.1 1 0.1 1.2 0.6 0.2 0.4 0.2 1-0.1 1.4l-1.1 1.2c-38.7 44.8-72.3 93.9-99.8 145.9l-0.2 0.3c-0.9 1.8-5.1 9.7-6 11.5 0 0-5.3 10.7-7.9 16z"/>
	<path id="Layer" class="s0" d="m1560.1 158.8c0 0 0.1 1.4-0.5 2.4 0 0-26.2 42.5-37.5 64.5-0.7 1.4-2 2.5-3.5 2.9-25.7 7.5-51.6 16.6-76.9 27.1l-1.5 0.6q-0.3 0.1-0.5 0.1c-0.3 0-0.6-0.2-0.9-0.4-0.3-0.4-0.4-0.9-0.2-1.4l0.7-1.5c29.7-62 67.6-119.9 112.7-172.1l1.1-1.2c0.3-0.4 0.9-0.5 1.3-0.4 0.5 0.2 0.8 0.6 0.8 1.2l0.1 1.6c0.3 25.7 4.8 76.6 4.8 76.6z"/>
	<path id="Layer" class="s0" d="m1623.9 74.6c-0.4 2-0.9 3.3-2.8 5.5-16.9 19.5-33.1 40.1-47.9 61.2l-0.9 1.4c-0.3 0.3-0.7 0.5-1.1 0.5q-0.2 0-0.3 0c-0.5-0.2-0.9-0.6-0.9-1.1l-0.2-1.7c-2.3-25.6-3.2-51.9-2.8-78 0-1.8-0.7-3.5-2-4.7-1.3-1.2-3.1-1.8-4.8-1.6-26.3 2.9-53.1 7.2-79.7 12.9l-1.9 0.4c-0.5 0.1-1-0.1-1.3-0.6-0.2-0.4-0.2-1 0.2-1.4l1.2-1.4c16.5-18.4 33.9-36.3 51.9-53.1 1.9-1.8 4-3.3 6.6-4.3 17.6-5.7 33.2-8.6 46.3-8.3 14.4 0.3 23.7 2.9 30.1 8.5 7.4 6.4 15.6 31.7 10.3 65.8z"/>
</svg>