<svg version="1.2" xmlns="http://www.w3.org/2000/svg" viewBox="0 0 1524 324" width="1524" height="324">
	<title>Vanguard-svg</title>
	<style>
		.s0 { fill: #96151d } 
	</style>
	<g id="Layer">
		<path id="Layer" fill-rule="evenodd" class="s0" d="m574.2 236.7v2h-73.9v-28.8l0.5-0.1h-0.6c0.1 0 0-75.8 0-75.8-0.1-4.4 1.5-24.1-20.9-23.9 0 0.1-23 0.4-22.5 28.2l-0.1 74.9c0.7 23.1 14.4 23.6 14.5 23.6v1.9h-74.8-42.6c-1.7 0.2-53.7 1.9-55.8-46.6v-26.2c0 0-20.6 4.5-27 9.5 0 0-16.5 10.5-5.7 28.4 0 0 8.1 14.2 34.3 9l-12.8 26h-25.2c0 0-58.8 1.2-65.7-42.1 0-0.3-5.3-33.9 34.9-47.6 0 0 13.7-4.8 39.9-9.4 0.3 0 22.3-3.2 24.3-15.2q0.2-0.9 0.3-1.8 0-0.9-0.1-1.8 0-0.9-0.3-1.8-0.2-0.9-0.6-1.8c0.4 1-10-26.3-73.4 1.3 0.5-0.7 13-39.9 13-39.9 0 0 59.8-17.6 101.5 8.1-0.3 0.2 21.7 12 21.4 48.8l0.7 50.9c-0.1 0.7 0 26.1 24.9 27.5 0 0.2 8.8 0.2 13.9 0.2v-111.2c0-0.6 1.4-23.8-14-24.8v-2.1l74.5-2.9v18.9c4.1-4 20.5-18.7 44.8-19.2 0 0 58.1-2 58 54.9 0 0 0.1 81.9 0.1 81.9-0.5 26.6 14.6 27 14.5 27zm-353.3-118.1q0 0-0.1 0 0.1 0 0.1 0zm-220.7-115.3v-2.4h80.9l58.1 169.7 43-136.2c0 0 8.7-22.9-14.8-32v-1.9h64.9l-81.9 240-34.1-13.1c0 0-27.6-8.2-42.3-49.6l-53.3-147.3c0 0-6.7-23.8-20.5-27.2zm1442.3 206.5c-0.4 28.4 14.7 26.9 14.7 26.9v2.1l-76.1-0.1v-102.4-2.1c0 1 0-26.2-23.8-26.5-0.3 0.3-27.9-2.6-27.9 49-0.2 0.3-0.2 60.4 46.4 52.6 0 0.3-16.4 29.3-16.4 29.3 0 0-37.8 13-69.1-20.5 0 0-23.9-20.7-23.9-61.4 0.3 0.3-0.7-38.3 23.9-62.8-0.3 0.8 38-42.5 90.8-9.1v-54.1c0-0.6 1.3-23.8-14.1-24.8v-2.1l75.4-2.9c0 0 0.1 208.9 0.1 208.9zm-226.6-115.2c16.5-31.1 48.3-21.5 48.3-21.5v40.8c-50.4-8.4-48.3 29.6-48.3 29.3v66.5c-0.4 28.2 14.1 27.1 14.8 27.1v1.9h-75.3-43.5c-1.6 0.2-53.7 1.9-55.7-46.6v-26.2c0 0-20.7 4.5-27.1 9.5 0 0-16.5 10.5-5.6 28.4 0 0 8.1 14.2 34.2 9l-12.7 26h-25.3c0 0-58.7 1.2-65.6-42.1 0-0.3-5.3-34 34.8-47.5 0 0 13.8-4.9 39.9-9.5 0.3 0 22.3-3.2 24.4-15.1q0.2-0.9 0.2-1.9 0.1-0.9 0-1.8-0.1-0.9-0.3-1.8-0.3-0.9-0.7-1.8c0.4 1-10-26.3-73.4 1.3 0.6-0.8 13.1-39.9 13.1-39.9 0 0 59.7-17.6 101.4 8.1-0.3 0.3 21.8 12 21.5 48.7l0.6 51c-0.1 0.8 0 26.1 24.9 27.5 0 0.2 10 0.2 14.9 0.2v-13.2-98c0-0.6 1.3-23.8-14.1-24.8v-2.1l74.6-2.9zm-236.9 23.9q0 0 0 0 0 0 0 0z"/>
		<path id="Layer" fill-rule="evenodd" class="s0" d="m830.7 72.9v106.1c0 0-0.5 23 20.5 22.8-0.1-0.3 22.1 3.4 22.9-28.3 0.1 0.1 0.1 0.1 0.1 0.1v-19.3-51.3c0-0.6 1.3-23.8-14.1-24.8v-2.1l74.6-2.9v136.5c0 0.6-1.4 26.3 14.8 27.1v1.9h-75.4v-19.4c-3 3.1-19.8 19.1-45.2 19.6 0 0-59.1 2.1-59-54.9-0.2-0.4-0.1-60.7 0-81.3h-45.5c1.8 1.5 4 4.5 4 4.5 25.5 32.7 0.7 59.9 0.5 60.1-16.4 22.9-69.2 29.4-69.2 29.4l-3.3 0.4c-17.9 0.6-12.2 9.7-12.1 9.7 2.6 6.1 15.5 5.1 15.5 5.1h30.2c61.3-0.2 67.8 40 68 40 10.1 56.3-46.6 73.1-103.1 71.7-56.1 0.3-76.9-24.1-76.7-24-14.3-16.5-6.8-39.6 18.5-46.5 18.6-5.2 40.7 0 40.7 0-16.8 2.3-13.8 19.4-13.8 19.5 5.7 20.2 34.3 20.4 36.1 20.4 36.6-1.9 37.6-19.7 37.6-28.4 0-11.6-9.5-18.5-9.5-18.5-13.3-9.8-38.4-6.7-55.9-7.4-24.5-1.4-30.9-24.5-32-31.5-1.2-7.2 0.2-10 4.2-12.6 7.4-4.4 24.2-6.3 22.3-6.3l0.4-0.1c-0.3 0-0.5 0-0.5 0-21.1-6.7-33.6-24.5-33.9-24.5-26.7-38.3 4.5-68.6 4.5-68.6 17.9-17.3 40.7-21.2 61-22.2 0 0 172.8 0 172.8 0zm-170.3 90.3c22.8 0 20.1-31.8 20.1-32.3-0.4-27.2-20.1-26.4-20.1-26.4-21.6 0-20.7 27.2-21 26.9-2.4 30.2 19.4 32.1 21 31.8zm802.3-132.2c0-16.5 13.5-30 30.2-30 16.6 0 30.1 13.5 30.1 30 0 16.5-13.5 29.9-30.1 29.9-4 0-7.9-0.8-11.5-2.2-3.7-1.5-7-3.7-9.8-6.5-2.8-2.8-5-6.1-6.5-9.7-1.6-3.7-2.3-7.6-2.4-11.5zm56.1 0c0-14.3-11.6-25.8-25.9-25.8-14.4 0-26 11.5-26 25.8 0 14.2 11.6 25.8 26 25.8 14.3 0 25.9-11.6 25.9-25.8z"/>
		<path id="Layer" fill-rule="evenodd" class="s0" d="m1486.3 32.9v15.9h-4.9v-35.3h12.7c6 0 12.1 1.9 12.1 8.9q0 1.4-0.4 2.8-0.5 1.5-1.4 2.6-0.9 1.2-2.2 2-1.2 0.8-2.7 1.1v0.1c4.3 1 4.8 3.2 5.4 7.2 0.5 3.5 1 7.3 2.2 10.6h-5.3c-0.4-2.1-1-4.4-1.2-6.5-0.4-3.2-0.4-6.1-2-7.9-1.4-1.5-3.4-1.4-5.4-1.5zm-0.1-4.2h8.1c5.5-0.3 6.7-2.7 6.7-5.5 0-2.8-1.2-5.3-6.7-5.5h-8.1c0 0 0 11 0 11z"/>
	</g>
</svg>